<svg width="553" height="111" viewBox="0 0 553 111" fill="none" xmlns="http://www.w3.org/2000/svg">
<path d="M368.178 28.5588L332.638 28.5723L312.636 82.5353L335.192 82.5272L351.492 38.5402L368.178 28.5588Z" fill="white"/>
<path d="M119.994 28.6531H92.6789H75.5003H57.834L37.835 82.6376H60.3824L67.117 64.5011H83.5899C95.6771 64.5011 103.988 57.6451 107.317 46.5824C108.467 42.7497 108.344 39.2665 107.112 36.3886L119.994 28.6531ZM87.6684 47.1016C86.3645 50.7649 81.3055 52.0398 77.3213 52.0398H71.7235L75.9043 40.7432H81.292C87.9404 40.7512 88.7998 43.8551 87.6576 47.1016H87.6684Z" fill="white"/>
<path d="M239.248 35.4175L252.884 27.2732H217.167H216.698C205.114 27.4561 191.136 31.8967 186.527 40.033C184.243 44.0675 183.93 45.4769 181.656 51.5421C179.383 57.6074 175.73 66.8356 177.055 71.513C178.381 76.1903 184.135 83.1351 198.555 83.6327C212.975 84.1302 220.157 82.538 226.59 77.2931C233.023 72.0482 235.283 65.7678 237.874 57.7472C240.466 49.7266 243.531 41.6092 239.736 36.0469C239.582 35.8264 239.415 35.6031 239.251 35.4041M220.394 43.812C218.972 48.1854 213.096 64.3853 211.297 68.939C209.497 73.4926 205.411 73.8772 202.698 73.8799C199.985 73.8826 196.772 72.7341 198.477 67.7152C200.182 62.6962 205.346 47.3409 206.914 42.8706C207.87 40.1809 210.613 37.572 215.553 37.5693C220.494 37.5666 221.827 39.4736 220.405 43.8255L220.394 43.812Z" fill="white"/>
<path d="M187.069 28.6289H159.753H151.359H142.572H124.906L104.909 82.6134H127.459L134.102 64.719L141.758 82.608H161.598L153.77 64.3182C164.166 63.2074 171.342 56.6365 174.37 46.5664C175.528 42.7363 175.41 39.2531 174.168 36.3725L187.069 28.6289ZM154.743 47.0747C153.444 50.7407 148.382 52.013 144.396 52.0156H138.814L142.989 40.719H148.377C155.012 40.7271 155.877 43.8283 154.729 47.0747H154.743Z" fill="white"/>
<path d="M463.93 28.5242L415.818 28.543L400.062 53.3095L400.054 28.5484L371.475 28.5591L351.487 82.5221L374.032 82.514L383.36 57.344L383.368 82.5087L399.855 82.5033L418.399 55.5984L408.429 82.5006L430.979 82.4925L447.299 38.4814L463.93 28.5242Z" fill="white"/>
<path d="M503.525 28.5107H472.629L437.569 82.4898H460.127L464.976 75.0341H482.661V82.4872H503.544L503.528 38.5244L520.229 28.5242L503.525 28.5107ZM469.41 68.1942L482.64 47.8172V68.1888L469.41 68.1942Z" fill="white"/>
<path d="M351.28 0.0753188H339.133H320.616C317.281 0.0753188 312.666 2.05222 310.379 4.47293L284.804 31.4988L273.824 0.104901H248.065L265.968 51.3755L221.051 98.8214C218.753 101.242 214.144 103.219 210.815 103.219L2.65882 103.297L0 110.468L204.034 110.392H215.394H234.698C238.041 110.392 242.659 108.397 244.935 105.976L274.222 75.0447L286.444 110.037H312.208L293.05 55.1626L334.265 11.6275C336.56 9.20677 341.172 7.23254 344.502 7.23254L550.255 7.15455L552.814 0L351.28 0.0753188Z" fill="#FECA32"/>
<path d="M361.503 97.4901H353.168L352.306 99.9861H356.78L355.361 103.87H350.911L348.782 109.911H341.9L347.799 93.6062H362.885L361.503 97.4901Z" fill="white"/>
<path d="M370.419 109.908H363.537L369.463 93.6033H376.144L370.419 109.908Z" fill="white"/>
<path d="M398.053 97.4794H393.392L389.012 109.9H382.547L386.986 97.4794H381.89L383.277 93.5955H399.44L398.053 97.4794Z" fill="white"/>
<path d="M416.559 109.895H410.113L408.537 103.206L406.161 109.895H400.089L406.016 93.5901H412.02L413.567 100.247L415.94 93.5901H422.327L416.559 109.895Z" fill="white"/>
<path d="M444.268 97.4657H435.934L435.072 99.9617H439.538L438.121 103.846H433.676L432.935 105.997H441.27L439.883 109.881H424.665L429.571 96.2607L430.557 93.571H445.642L444.268 97.4657Z" fill="white"/>
<path d="M461.574 98.6331L461.883 97.7401C462.026 97.3501 462.007 97.0462 461.821 96.831C461.638 96.615 461.397 96.4547 461.126 96.3684C460.739 96.2561 460.341 96.1884 459.938 96.1667C459.424 96.1667 459.084 96.2554 458.92 96.4356C458.743 96.6342 458.615 96.8721 458.548 97.1296C458.446 97.5196 458.602 97.8692 459.012 98.1758C459.518 98.5375 460.06 98.8475 460.628 99.1011L462.759 100.086C463.479 100.41 464.158 100.818 464.782 101.301C465.337 101.728 465.781 102.281 466.078 102.915C466.347 103.52 466.347 104.26 466.064 105.088C465.829 106.056 465.333 106.941 464.628 107.646C463.974 108.3 463.206 108.828 462.36 109.204C461.582 109.55 460.769 109.813 459.936 109.989C459.3 110.13 458.656 110.229 458.007 110.285L457.22 110.33C455.982 110.352 454.746 110.238 453.532 109.992C452.676 109.82 451.85 109.524 451.078 109.115C450.51 108.815 450.01 108.401 449.61 107.899C449.296 107.494 449.051 107.039 448.886 106.554C448.747 106.131 448.679 105.689 448.684 105.244C448.688 104.877 448.724 104.511 448.791 104.15H455.55L455.09 105.494C455.023 105.638 454.997 105.797 455.013 105.955C455.029 106.112 455.087 106.263 455.181 106.39C455.372 106.598 455.61 106.756 455.876 106.85C456.251 106.973 456.64 107.045 457.034 107.065C457.477 107.076 457.909 106.929 458.252 106.651C458.575 106.393 458.842 106.073 459.039 105.71C459.13 105.562 459.179 105.392 459.182 105.218C459.185 105.045 459.141 104.873 459.055 104.723C458.828 104.389 458.52 104.119 458.16 103.937C457.677 103.674 457.177 103.443 456.663 103.246C456.086 103.02 455.494 102.779 454.887 102.522C454.289 102.269 453.706 101.981 453.142 101.659C452.615 101.364 452.141 100.984 451.738 100.535C451.36 100.111 451.099 99.5968 450.981 99.0419C450.868 98.3713 450.943 97.6824 451.197 97.0516C451.39 96.2486 451.846 95.5331 452.493 95.0182C453.147 94.4856 453.888 94.0689 454.683 93.7863C455.46 93.5048 456.26 93.2924 457.075 93.1515C457.708 93.038 458.346 92.9608 458.987 92.9202C459.472 92.8987 459.734 92.8906 459.777 92.8906C461.792 92.8906 463.381 93.095 464.545 93.5039C465.709 93.9127 466.573 94.4211 467.139 95.0289C467.657 95.5453 468.015 96.1985 468.174 96.9117C468.293 97.4792 468.323 98.0616 468.265 98.6385L461.574 98.6331Z" fill="white"/>
<path d="M485.732 98.6251L486.042 97.7321C486.184 97.3421 486.166 97.0382 485.98 96.823C485.795 96.6078 485.555 96.4477 485.285 96.3604C484.898 96.2492 484.499 96.1824 484.097 96.1613C483.582 96.1613 483.243 96.2501 483.078 96.4303C482.901 96.6289 482.774 96.8667 482.707 97.1242C482.604 97.5142 482.761 97.8639 483.17 98.1732C483.677 98.5339 484.218 98.8429 484.786 99.0957C485.446 99.4051 486.155 99.7332 486.917 100.083C487.638 100.406 488.317 100.814 488.94 101.299C489.495 101.72 489.939 102.269 490.236 102.899C490.505 103.507 490.505 104.244 490.236 105.072C490.002 106.041 489.505 106.926 488.8 107.63C488.148 108.285 487.38 108.813 486.535 109.187C485.751 109.535 484.933 109.799 484.094 109.975C483.458 110.115 482.814 110.213 482.165 110.269L481.379 110.314C480.141 110.337 478.904 110.224 477.691 109.978C476.835 109.804 476.009 109.509 475.237 109.101C474.669 108.8 474.17 108.386 473.771 107.883C473.455 107.479 473.209 107.024 473.044 106.538C472.905 106.115 472.837 105.673 472.842 105.228C472.848 104.861 472.884 104.495 472.95 104.134H479.676L479.213 105.478C479.089 105.868 479.121 106.167 479.304 106.371C479.495 106.58 479.733 106.739 479.999 106.834C480.374 106.955 480.764 107.028 481.158 107.049C481.6 107.059 482.032 106.911 482.375 106.632C482.706 106.372 482.98 106.046 483.178 105.675C483.269 105.527 483.319 105.358 483.322 105.185C483.325 105.011 483.281 104.841 483.194 104.69C482.968 104.356 482.66 104.086 482.3 103.905C481.817 103.64 481.316 103.408 480.802 103.211C480.226 102.985 479.633 102.746 479.027 102.487C478.429 102.236 477.846 101.948 477.284 101.624C476.755 101.331 476.28 100.951 475.878 100.5C475.501 100.076 475.24 99.5615 475.121 99.007C475.007 98.3373 475.082 97.6493 475.336 97.0193C475.53 96.2158 475.986 95.4995 476.632 94.9832C477.287 94.4516 478.027 94.035 478.822 93.7514C479.599 93.4695 480.4 93.258 481.214 93.1193C481.848 93.0036 482.487 92.9255 483.13 92.8853L483.916 92.8557C485.931 92.8557 487.521 93.0601 488.684 93.469C489.848 93.8805 490.71 94.3888 491.278 94.994C491.796 95.5102 492.155 96.1635 492.313 96.8768C492.432 97.4433 492.463 98.0249 492.404 98.6009L485.732 98.6251Z" fill="white"/>
</svg>
