<svg width="73" height="13" viewBox="0 0 73 13" fill="none" xmlns="http://www.w3.org/2000/svg">
<path d="M8.05075 3.77949H0V12.717H2.24067V9.8094H6.53452L8.49338 12.717H11.0024L8.84227 9.79594C9.51309 9.68867 9.99585 9.43367 10.2905 9.03094C10.5855 8.62898 10.7332 7.98568 10.7332 7.12941V6.45948C10.7332 5.95016 10.6796 5.54821 10.5867 5.23987C10.4923 4.93326 10.3268 4.65322 10.1036 4.4225C9.86705 4.19725 9.58285 4.0279 9.272 3.92693C8.94977 3.83303 8.54728 3.78066 8.05075 3.78066V3.77949ZM7.68839 7.83941H2.24067V5.74919H7.68927C7.99802 5.74919 8.21245 5.80272 8.31996 5.89546C8.42747 5.98819 8.49572 6.16343 8.49572 6.41794V7.16831C8.49572 7.43628 8.42864 7.61064 8.31996 7.70425C8.21128 7.79787 7.99773 7.83824 7.68956 7.83824L7.68839 7.83941ZM14.0307 10.0771V3.77949H11.7901V10.0235C11.7901 10.5329 11.8302 10.9483 11.9239 11.2563C12.0211 11.5649 12.1913 11.8455 12.4202 12.0744C12.6492 12.3032 12.93 12.4735 13.2389 12.5707C13.5612 12.6781 13.9637 12.717 14.4734 12.717H19.8402C20.3382 12.717 20.7393 12.6769 21.0612 12.5707C21.3771 12.4799 21.6639 12.3085 21.8934 12.0734C22.1221 11.8469 22.2884 11.5654 22.3765 11.256C22.4702 10.948 22.5229 10.5326 22.5229 10.0232V3.77949H20.282V10.0771C20.282 10.3453 20.2149 10.5194 20.1062 10.6133C19.9976 10.7072 19.784 10.7473 19.4755 10.7473H14.8357C14.5135 10.7473 14.2991 10.7069 14.1913 10.6133C14.0835 10.5197 14.0304 10.3453 14.0304 10.0771H14.0307ZM30.1038 12.717V5.74919H34.4378V3.77949H23.5292V5.74919H27.8646V12.717H30.1038ZM37.683 10.0771V3.77949H35.4423V10.0235C35.4423 10.5329 35.4824 10.9483 35.5765 11.2563C35.6736 11.5649 35.8438 11.8455 36.0728 12.0744C36.3017 12.3032 36.5825 12.4735 36.8914 12.5707C37.2137 12.6781 37.6159 12.717 38.1259 12.717H43.4928C43.9907 12.717 44.3918 12.6769 44.7137 12.5707C45.0294 12.4803 45.3161 12.3094 45.5456 12.0749C45.7746 11.8481 45.9409 11.5661 46.0287 11.2563C46.1227 10.9483 46.1752 10.5329 46.1752 10.0235V3.77949H43.9345V10.0771C43.9345 10.3453 43.8674 10.5194 43.7587 10.6133C43.6501 10.7072 43.4365 10.7473 43.128 10.7473H38.4879C38.1657 10.7473 37.9513 10.7069 37.8435 10.6133C37.7357 10.5197 37.6824 10.3453 37.6824 10.0771H37.683ZM57.532 6.37903V6.20351C57.532 5.37297 57.3173 4.75659 56.8875 4.3678C56.4578 3.97901 55.7744 3.77832 54.8616 3.77832H47.254V12.717H55.3045C56.217 12.717 56.9013 12.5295 57.3307 12.1407C57.7602 11.7519 57.9752 11.1358 57.9752 10.305V10.1174C57.9752 9.28662 57.7604 8.69705 57.3307 8.34873C57.2531 8.29897 57.1724 8.25421 57.0891 8.21474C56.9757 8.15963 56.8593 8.1108 56.7405 8.06847C57.0355 7.90757 57.2367 7.69343 57.3574 7.45208C57.4649 7.21102 57.5332 6.84915 57.5332 6.3802L57.532 6.37903ZM49.4947 7.357V5.74802H54.4995C54.8218 5.74802 55.0362 5.80155 55.144 5.89429C55.2518 5.98702 55.3048 6.16226 55.3048 6.41677V6.68474C55.3048 6.95271 55.2512 7.12706 55.144 7.22068C55.0368 7.31429 54.8218 7.35466 54.4995 7.35466L49.4947 7.357ZM49.4947 10.7473V9.1383H54.9556C55.2644 9.1383 55.4791 9.19213 55.5863 9.28457C55.6935 9.37702 55.7621 9.55254 55.7621 9.80735V10.075C55.7621 10.3433 55.695 10.5174 55.5863 10.6113C55.4776 10.7052 55.2641 10.7452 54.9556 10.7452L49.4947 10.7473ZM61.0141 5.74919H68.3401V3.77949H58.7732V12.717H68.7037V10.7473H61.0141V9.23309H68.1656L68.3413 7.26339H61.0141V5.74919Z" fill="#282828"/>
<path d="M71.3588 3.23978C72.2247 3.23978 72.9266 2.5388 72.9266 1.67409C72.9266 0.809383 72.2247 0.108398 71.3588 0.108398C70.4929 0.108398 69.791 0.809383 69.791 1.67409C69.791 2.5388 70.4929 3.23978 71.3588 3.23978Z" fill="#F41240"/>
</svg>
