<svg width="90" height="17" viewBox="0 0 90 17" fill="none" xmlns="http://www.w3.org/2000/svg">
<path d="M27.2979 10.4473C27.2979 11.6371 26.1881 12.5002 24.6263 12.5002H20.9666V5.10904H24.5025C26.0235 5.10904 27.0925 5.93 27.0925 7.07941C27.0925 7.85999 26.6813 8.3525 26.065 8.63985C26.4309 8.77882 26.7454 9.02655 26.9659 9.34963C27.1865 9.6727 27.3025 10.0556 27.2982 10.4465L27.2979 10.4473ZM22.5684 6.46505V8.06622H24.4595C25.0371 8.06622 25.405 7.73777 25.405 7.28637C25.405 6.83497 24.9942 6.46505 24.4595 6.46505H22.5684ZM24.6241 11.1453C25.2408 11.1453 25.6931 10.7761 25.6931 10.2421C25.6931 9.70814 25.2816 9.34074 24.6241 9.34074H22.5702V11.1471L24.6241 11.1453ZM33.3397 12.4591L30.7908 9.54445H30.3814V12.4591H28.7369V5.11012H30.3814V7.94291H30.7926L33.261 5.11012H35.1932L32.11 8.64093L35.4809 12.4591H33.3397ZM35.4773 8.80534C35.4773 6.58835 37.1222 4.98682 39.4241 4.98682C41.726 4.98682 43.3708 6.58799 43.3708 8.80534C43.3708 11.0227 41.7263 12.6235 39.4241 12.6235C37.1218 12.6235 35.4791 11.0223 35.4791 8.80534H35.4773ZM41.6444 8.80534C41.6444 7.40931 40.7397 6.46505 39.4241 6.46505C38.1085 6.46505 37.2041 7.40931 37.2041 8.80534C37.2041 10.2014 38.1085 11.1453 39.4241 11.1453C40.7397 11.1453 41.6444 10.201 41.6444 8.80534ZM49.6592 5.11012H51.304V12.4591H49.6592V9.50263H46.3702V12.4591H44.7258V5.11012H46.3702V8.02512H49.6592V5.11012ZM54.8392 12.4591V6.58871H52.2904V5.11048H58.9917V6.58871H56.4461V12.4594L54.8392 12.4591ZM66.0628 8.35357V12.4591H64.8714L64.5425 11.3097C64.3002 11.7133 63.9566 12.0468 63.5457 12.2771C63.1347 12.5075 62.6707 12.6268 62.1995 12.6231C60.7193 12.6231 59.6503 11.6381 59.6503 10.2836C59.6503 8.929 60.7193 7.98402 62.8995 7.98402H64.5025C64.4205 7.03975 63.927 6.38321 63.0223 6.38321C62.2822 6.38321 61.789 6.7935 61.542 7.2449L60.0618 6.99865C60.4319 5.72593 61.7063 4.98682 63.1042 4.98682C64.9151 4.98682 66.0664 6.21879 66.0664 8.35357H66.0628ZM64.4595 9.25493H62.9385C61.7049 9.25493 61.2937 9.6656 61.2937 10.1992C61.2937 10.815 61.7872 11.226 62.6092 11.226C63.6782 11.226 64.4595 10.4455 64.4595 9.25493ZM72.3963 12.4591L69.8478 9.54445H69.4366V12.4591H67.7932V5.11012H69.4377V7.94291H69.8489L72.3155 5.11012H74.2477L71.1645 8.64093L74.5354 12.4591H72.3963ZM77.4944 12.4591V6.58871H74.9455V5.11048H81.6469V6.58871H79.0977V12.4594L77.4944 12.4591ZM89.8701 9.25674H83.9492C84.1138 10.4062 84.9359 11.1453 86.1692 11.1453C87.0327 11.1453 87.6905 10.7761 88.0606 10.2421L89.5816 10.4887C89.0469 11.8844 87.6082 12.6235 86.0457 12.6235C83.8261 12.6235 82.2228 11.0223 82.2228 8.80534C82.2228 6.58835 83.8261 4.98682 86.0457 4.98682C88.2653 4.98682 89.8701 6.58799 89.8701 8.72313C89.9112 8.92828 89.8701 9.09233 89.8701 9.25674ZM84.0734 7.98546H88.1436C87.8548 7.0841 87.1154 6.42539 86.0879 6.42539C85.1009 6.38284 84.32 7.03975 84.0734 7.98546Z" fill="#282828"/>
<path d="M0 8.24544C0 4.69696 6.88605e-08 2.92237 1.10402 1.81983C2.20804 0.717284 3.98502 0.717285 7.53825 0.717285H8.16644C11.72 0.717285 13.497 0.717284 14.6007 1.81983C15.7043 2.92237 15.7047 4.69696 15.7047 8.24544V8.87278C15.7047 12.4216 15.7047 14.1962 14.6007 15.2988C13.4966 16.4013 11.7197 16.4009 8.16644 16.4009H7.53825C3.98466 16.4009 2.20804 16.4009 1.10402 15.2988C6.88605e-08 14.1966 0 12.4205 0 8.87278V8.24544Z" fill="#0077FF"/>
<path d="M8.35633 12.0158C4.77674 12.0158 2.73514 9.5641 2.6521 5.48779H4.44316C4.502 8.48031 5.82372 9.74834 6.8707 10.0097V5.48779H8.55923V8.06893C9.59285 7.95788 10.6792 6.78142 11.0456 5.48779H12.7338C12.4525 7.08212 11.2749 8.25857 10.4373 8.74206C11.2749 9.13397 12.6161 10.1601 13.1266 12.0158H11.268C10.8691 10.7744 9.87445 9.8136 8.56031 9.68308V12.0158H8.35633Z" fill="white"/>
</svg>
