<svg xmlns="http://www.w3.org/2000/svg" xmlns:xlink="http://www.w3.org/1999/xlink" width="512" height="512" x="0" y="0" viewBox="0 0 36 36" style="enable-background:new 0 0 512 512" xml:space="preserve" class="">
    <g>
        <path d="m26.6 21.442-3-2.171a2.23 2.23 0 0 0-2.706.078l-1.427 1.159a8.372 8.372 0 0 1-3.985-3.985l1.108-1.362a2.235 2.235 0 0 0 .1-2.678L14.551 9.43a2.166 2.166 0 0 0-3.467-.112L9.421 11.4a4.13 4.13 0 0 0-.907 2.993A14.585 14.585 0 0 0 21.6 27.476c.131.013.262.019.393.019a4.15 4.15 0 0 0 2.6-.924l2.1-1.684a2.162 2.162 0 0 0-.09-3.445zm-1.16 1.884-2.1 1.683a2.164 2.164 0 0 1-1.549.477A12.582 12.582 0 0 1 10.5 14.2a2.178 2.178 0 0 1 .478-1.551l1.664-2.08a.16.16 0 0 1 .128-.062h.007a.161.161 0 0 1 .131.071l2.134 3.053a.222.222 0 0 1-.01.27l-1.489 1.832a1 1 0 0 0-.155.995 10.376 10.376 0 0 0 5.875 5.872 1 1 0 0 0 .995-.156l1.9-1.541a.228.228 0 0 1 .275-.008l3.006 2.171a.165.165 0 0 1 .071.132.156.156 0 0 1-.066.128z" fill="#ffffff" opacity="1" class=""/>
        <path d="M18 1A16.975 16.975 0 0 0 3.3 26.5l-2.25 7.2A1 1 0 0 0 2 35a1.016 1.016 0 0 0 .3-.045L9.5 32.7A16.993 16.993 0 1 0 18 1zm0 32a14.959 14.959 0 0 1-7.848-2.235 1 1 0 0 0-.524-.149.976.976 0 0 0-.3.046l-5.805 1.814 1.815-5.806a1 1 0 0 0-.1-.823A14.988 14.988 0 1 1 18 33z" fill="#ffffff" opacity="1" class=""/>
    </g>
</svg>