<svg width="59" height="14" viewBox="0 0 59 14" fill="none" xmlns="http://www.w3.org/2000/svg">
<path fill-rule="evenodd" clip-rule="evenodd" d="M18.362 2.04725C18.2548 1.65028 18.0452 1.28835 17.7541 0.997636C17.463 0.706922 17.1006 0.497606 16.7031 0.390612C15.2413 1.34402e-07 9.37643 0 9.37643 0C9.37643 0 3.51434 -3.58404e-07 2.04952 0.390141C1.65207 0.497172 1.2897 0.706504 0.99864 0.997216C0.707579 1.28793 0.498018 1.64984 0.3909 2.04678C0 3.50658 0 6.5542 0 6.5542C0 6.5542 0 9.60205 0.3909 11.0618C0.498054 11.4587 0.707631 11.8206 0.998689 12.1113C1.28975 12.4019 1.65209 12.6112 2.04952 12.7182C3.51434 13.1086 9.37643 13.1086 9.37643 13.1086C9.37643 13.1086 15.2413 13.1086 16.7031 12.7182C17.1004 12.6114 17.4627 12.4023 17.7538 12.1118C18.0449 11.8214 18.2546 11.4597 18.362 11.063C18.7522 9.60252 18.7522 6.55467 18.7522 6.55467C18.7522 6.55467 18.7522 3.50705 18.3615 2.04725H18.362Z" fill="#FF0000"/>
<path fill-rule="evenodd" clip-rule="evenodd" d="M7.50269 9.36352L12.3744 6.55407L7.50269 3.74463V9.36352Z" fill="white"/>
<path fill-rule="evenodd" clip-rule="evenodd" d="M27.2194 11.9261C26.8494 11.676 26.5843 11.2887 26.4289 10.7613C26.2734 10.234 26.1937 9.53384 26.1937 8.65796V7.46639C26.1937 6.58151 26.2831 5.87137 26.462 5.33599C26.6409 4.80062 26.9204 4.4104 27.3005 4.16533C27.6794 3.92106 28.1776 3.79586 28.795 3.79586C29.4037 3.79586 29.8898 3.92105 30.2567 4.17168C30.6236 4.4223 30.8918 4.8122 31.0623 5.34257C31.2328 5.87294 31.3158 6.58205 31.3158 7.46381V8.65561C31.3158 9.53141 31.2333 10.2345 31.0682 10.7649C30.9035 11.295 30.6359 11.6854 30.2628 11.9297C29.8898 12.1739 29.3886 12.2991 28.7533 12.2991C28.103 12.3019 27.5898 12.177 27.2198 11.9266L27.2194 11.9261ZM29.2985 10.6401C29.3999 10.3719 29.4537 9.93408 29.4537 9.32925V6.76902C29.4537 6.17899 29.4029 5.7501 29.2985 5.47599C29.1941 5.20188 29.0151 5.06776 28.7554 5.06776C28.505 5.06776 28.329 5.2047 28.2246 5.47599C28.1202 5.74728 28.0694 6.17899 28.0694 6.76902V9.32925C28.0694 9.93713 28.1164 10.375 28.2157 10.6401C28.3149 10.9053 28.493 11.0423 28.7526 11.0423C29.0123 11.0423 29.195 10.9074 29.2985 10.6401ZM55.7 8.6798V9.0939C55.7 9.62121 55.7151 10.0144 55.7471 10.2796C55.7791 10.5448 55.8423 10.7355 55.9409 10.8546C56.0394 10.9737 56.1914 11.0364 56.3972 11.0364C56.6747 11.0364 56.8657 10.929 56.9671 10.7146C57.0684 10.5001 57.1251 10.1427 57.134 9.64212L58.7301 9.73443C58.7398 9.83245 58.7438 9.93096 58.7421 10.0294C58.7421 10.7891 58.5343 11.3561 58.1186 11.7305C57.7029 12.1049 57.1149 12.2928 56.3546 12.2942C55.4417 12.2942 54.8023 12.0082 54.4363 11.4362C54.0694 10.8642 53.8876 9.98247 53.8876 8.78479V7.352C53.8876 6.11863 54.0783 5.22184 54.4573 4.65295C54.8362 4.08406 55.4865 3.80361 56.4094 3.80361C57.0444 3.80361 57.5311 3.91988 57.8712 4.15218C58.2113 4.38448 58.45 4.74503 58.5902 5.23664C58.7303 5.72825 58.799 6.40753 58.799 7.27144V8.67768H55.7V8.6798ZM55.9352 5.22372C55.8428 5.33999 55.7802 5.53071 55.7471 5.79284C55.7139 6.05497 55.7 6.45733 55.7 6.99075V7.58078H57.0546V6.99075C57.0546 6.46352 57.0366 6.06421 57.0007 5.79284C56.9649 5.52179 56.8993 5.32824 56.8069 5.21785C56.7145 5.10745 56.5682 5.05108 56.3713 5.05108C56.1744 5.05108 56.0284 5.10769 55.9357 5.22372H55.9352ZM22.7146 8.52384L20.6084 0.929811H22.446L23.1829 4.37086C23.371 5.21996 23.5082 5.94106 23.5975 6.53978H23.6512C23.7139 6.11056 23.8522 5.39158 24.0661 4.38284L24.8295 0.926758H26.6674L24.5381 8.52384V12.1669H22.7146V8.52384ZM37.2906 3.95676V12.1645H35.8436L35.6825 11.1606H35.6437C35.25 11.9203 34.6603 12.2996 33.8748 12.2987C33.3288 12.2987 32.9261 12.1199 32.6666 11.7624C32.4071 11.4049 32.2778 10.8468 32.2787 10.0882V3.9577H34.1283V9.98458C34.1283 10.3512 34.1671 10.6134 34.2478 10.7682C34.3285 10.9229 34.4625 11.003 34.6505 11.003C34.8158 11.0023 34.9771 10.9515 35.1129 10.8572C35.2551 10.7644 35.369 10.6344 35.4421 10.4814V3.95676H37.2906ZM46.7832 3.95676V12.1645H45.3365L45.1751 11.1606H45.1366C44.7427 11.9203 44.153 12.2996 43.3674 12.2987C42.8214 12.2987 42.4187 12.1199 42.1592 11.7624C41.8997 11.4049 41.7704 10.8468 41.7713 10.0882V3.9577H43.6209V9.98458C43.6209 10.3512 43.6597 10.6134 43.7404 10.7682C43.8211 10.9229 43.9552 11.003 44.1431 11.003C44.3085 11.0024 44.4697 10.9515 44.6055 10.8572C44.7477 10.7644 44.8616 10.6344 44.9348 10.4814V3.95676H46.7832Z" fill="#282828"/>
<path fill-rule="evenodd" clip-rule="evenodd" d="M42.3202 2.41706H40.4826V12.1647H38.6716V2.41706H36.8337V0.930251H42.3169V2.41706H42.3202ZM52.9077 5.2709C52.7943 4.75275 52.6153 4.37834 52.3649 4.14487C52.1144 3.91139 51.7712 3.7963 51.3326 3.7963C50.9936 3.79568 50.6622 3.89629 50.3809 4.08521C50.0898 4.27224 49.8539 4.5335 49.6977 4.842H49.6829V0.51709H47.8989V12.1673H49.4263L49.6144 11.3896H49.6532C49.7965 11.6668 50.0112 11.8843 50.2977 12.0452C50.5883 12.2072 50.9164 12.2904 51.2493 12.2864C51.8765 12.2864 52.3369 11.9984 52.6306 11.4225C52.9243 10.8466 53.0715 9.94681 53.0721 8.72322V7.42431C53.0751 6.50662 53.0182 5.78882 52.9074 5.27043L52.9077 5.2709ZM51.2096 8.62058C51.2096 9.21953 51.186 9.68719 51.135 10.0268C51.084 10.3665 51.0038 10.6077 50.8873 10.7507C50.7709 10.8938 50.6159 10.9654 50.419 10.9654C50.2711 10.9662 50.1254 10.9292 49.9957 10.8581C49.8623 10.7824 49.7527 10.6709 49.6793 10.5363V5.87244C49.7338 5.6634 49.8454 5.4736 50.0016 5.32422C50.1537 5.18118 50.3179 5.10977 50.4969 5.10977C50.6851 5.10977 50.8309 5.18423 50.9325 5.33009C51.0341 5.47595 51.1054 5.72634 51.1472 6.07186C51.1891 6.41737 51.2067 6.91509 51.2067 7.55867V8.62058H51.2096Z" fill="#282828"/>
</svg>
